<mxfile host="app.diagrams.net" agent="Mozilla/5.0 (Windows NT 10.0; Win64; x64) AppleWebKit/537.36 (KHTML, like Gecko) Chrome/135.0.0.0 Safari/537.36" version="26.2.15">
  <diagram name="Page-1" id="e7e014a7-5840-1c2e-5031-d8a46d1fe8dd">
    <mxGraphModel dx="1426" dy="711" grid="1" gridSize="10" guides="1" tooltips="1" connect="1" arrows="1" fold="1" page="1" pageScale="1" pageWidth="1169" pageHeight="826" background="none" math="0" shadow="0">
      <root>
        <mxCell id="0" />
        <mxCell id="1" parent="0" />
        <mxCell id="2" value="Customer" style="swimlane;whiteSpace=wrap;startSize=23;" parent="1" vertex="1">
          <mxGeometry x="80" y="128" width="364.5" height="570" as="geometry" />
        </mxCell>
        <mxCell id="5" value="" style="ellipse;shape=startState;fillColor=#000000;strokeColor=#ff0000;" parent="2" vertex="1">
          <mxGeometry x="172.25" y="32" width="30" height="30" as="geometry" />
        </mxCell>
        <mxCell id="aUz5DJlgSjErb7V7S4l1-57" style="edgeStyle=orthogonalEdgeStyle;rounded=0;orthogonalLoop=1;jettySize=auto;html=1;" parent="2" source="7" edge="1">
          <mxGeometry relative="1" as="geometry">
            <mxPoint x="120" y="212" as="targetPoint" />
          </mxGeometry>
        </mxCell>
        <mxCell id="7" value="Nhập từ khóa tìm &#xa;kiếm" style="" parent="2" vertex="1">
          <mxGeometry x="10" y="92" width="110" height="50" as="geometry" />
        </mxCell>
        <mxCell id="aUz5DJlgSjErb7V7S4l1-58" style="edgeStyle=orthogonalEdgeStyle;rounded=0;orthogonalLoop=1;jettySize=auto;html=1;" parent="2" source="8" edge="1">
          <mxGeometry relative="1" as="geometry">
            <mxPoint x="185" y="212" as="targetPoint" />
          </mxGeometry>
        </mxCell>
        <mxCell id="8" value="Chọn hãng xe" style="" parent="2" vertex="1">
          <mxGeometry x="130" y="92" width="110" height="50" as="geometry" />
        </mxCell>
        <mxCell id="aUz5DJlgSjErb7V7S4l1-59" style="edgeStyle=orthogonalEdgeStyle;rounded=0;orthogonalLoop=1;jettySize=auto;html=1;" parent="2" source="10" edge="1">
          <mxGeometry relative="1" as="geometry">
            <mxPoint x="250" y="212" as="targetPoint" />
          </mxGeometry>
        </mxCell>
        <mxCell id="10" value="Chọn loại xe" style="" parent="2" vertex="1">
          <mxGeometry x="250" y="92" width="110" height="50" as="geometry" />
        </mxCell>
        <mxCell id="38" value="" style="ellipse;shape=endState;fillColor=#000000;strokeColor=#ff0000" parent="2" vertex="1">
          <mxGeometry x="150" y="462" width="30" height="30" as="geometry" />
        </mxCell>
        <mxCell id="16" value="Chọn tìm kiếm" style="" parent="2" vertex="1">
          <mxGeometry x="120" y="235" width="110" height="50" as="geometry" />
        </mxCell>
        <mxCell id="aUz5DJlgSjErb7V7S4l1-50" value="" style="edgeStyle=orthogonalEdgeStyle;rounded=0;orthogonalLoop=1;jettySize=auto;html=1;" parent="2" source="18" target="38" edge="1">
          <mxGeometry relative="1" as="geometry" />
        </mxCell>
        <mxCell id="18" value="Hiển thị kết quả" style="" parent="2" vertex="1">
          <mxGeometry x="110" y="372" width="110" height="50" as="geometry" />
        </mxCell>
        <mxCell id="aUz5DJlgSjErb7V7S4l1-51" value="" style="edgeStyle=orthogonalEdgeStyle;rounded=0;orthogonalLoop=1;jettySize=auto;html=1;" parent="2" source="30" target="38" edge="1">
          <mxGeometry relative="1" as="geometry" />
        </mxCell>
        <mxCell id="30" value="Hiển thị không tìm&#xa;thấy mẫu xe" style="" parent="2" vertex="1">
          <mxGeometry x="240" y="452" width="110" height="50" as="geometry" />
        </mxCell>
        <mxCell id="aUz5DJlgSjErb7V7S4l1-53" value="" style="endArrow=none;html=1;rounded=0;" parent="2" edge="1">
          <mxGeometry width="50" height="50" relative="1" as="geometry">
            <mxPoint x="120" y="212" as="sourcePoint" />
            <mxPoint x="250" y="212" as="targetPoint" />
          </mxGeometry>
        </mxCell>
        <mxCell id="3" value="Hệ thống" style="swimlane;whiteSpace=wrap;startSize=23;" parent="1" vertex="1">
          <mxGeometry x="444.5" y="128" width="280" height="570" as="geometry" />
        </mxCell>
        <mxCell id="aUz5DJlgSjErb7V7S4l1-44" style="edgeStyle=orthogonalEdgeStyle;rounded=0;orthogonalLoop=1;jettySize=auto;html=1;entryX=0.5;entryY=0;entryDx=0;entryDy=0;" parent="3" source="15" target="aUz5DJlgSjErb7V7S4l1-42" edge="1">
          <mxGeometry relative="1" as="geometry" />
        </mxCell>
        <mxCell id="15" value="Thực hiện tìm kiếm&#xa;và trả về kết quả " style="" parent="3" vertex="1">
          <mxGeometry x="65.5" y="232" width="110" height="50" as="geometry" />
        </mxCell>
        <mxCell id="aUz5DJlgSjErb7V7S4l1-42" value="" style="rhombus;whiteSpace=wrap;html=1;" parent="3" vertex="1">
          <mxGeometry x="91" y="312" width="59" height="56" as="geometry" />
        </mxCell>
        <mxCell id="aUz5DJlgSjErb7V7S4l1-46" value="Tìm thấy kết quả" style="text;html=1;align=center;verticalAlign=middle;whiteSpace=wrap;rounded=0;" parent="3" vertex="1">
          <mxGeometry x="15.5" y="302" width="60" height="30" as="geometry" />
        </mxCell>
        <mxCell id="aUz5DJlgSjErb7V7S4l1-49" value="Không tìm thấy kết quả" style="text;html=1;align=center;verticalAlign=middle;whiteSpace=wrap;rounded=0;" parent="3" vertex="1">
          <mxGeometry x="150.5" y="402" width="60" height="30" as="geometry" />
        </mxCell>
        <mxCell id="aUz5DJlgSjErb7V7S4l1-45" style="edgeStyle=orthogonalEdgeStyle;rounded=0;orthogonalLoop=1;jettySize=auto;html=1;entryX=0.5;entryY=0;entryDx=0;entryDy=0;" parent="1" source="aUz5DJlgSjErb7V7S4l1-42" target="18" edge="1">
          <mxGeometry relative="1" as="geometry" />
        </mxCell>
        <mxCell id="aUz5DJlgSjErb7V7S4l1-48" style="edgeStyle=orthogonalEdgeStyle;rounded=0;orthogonalLoop=1;jettySize=auto;html=1;entryX=1;entryY=0.5;entryDx=0;entryDy=0;" parent="1" source="aUz5DJlgSjErb7V7S4l1-42" target="30" edge="1">
          <mxGeometry relative="1" as="geometry">
            <Array as="points">
              <mxPoint x="570" y="605" />
            </Array>
          </mxGeometry>
        </mxCell>
        <mxCell id="aUz5DJlgSjErb7V7S4l1-52" style="edgeStyle=orthogonalEdgeStyle;rounded=0;orthogonalLoop=1;jettySize=auto;html=1;entryX=0;entryY=0.5;entryDx=0;entryDy=0;" parent="1" source="16" target="15" edge="1">
          <mxGeometry relative="1" as="geometry">
            <mxPoint x="500" y="400" as="targetPoint" />
          </mxGeometry>
        </mxCell>
        <mxCell id="aUz5DJlgSjErb7V7S4l1-61" value="" style="endArrow=classic;html=1;rounded=0;" parent="1" edge="1">
          <mxGeometry width="50" height="50" relative="1" as="geometry">
            <mxPoint x="250" y="340" as="sourcePoint" />
            <mxPoint x="250" y="360" as="targetPoint" />
          </mxGeometry>
        </mxCell>
        <mxCell id="aUz5DJlgSjErb7V7S4l1-62" value="Chức năng tìm kiếm" style="rounded=0;whiteSpace=wrap;html=1;" parent="1" vertex="1">
          <mxGeometry x="80" y="90" width="644.5" height="38" as="geometry" />
        </mxCell>
      </root>
    </mxGraphModel>
  </diagram>
</mxfile>
